<?xml version="1.0" encoding="UTF-8"?><svg xmlns="http://www.w3.org/2000/svg" xmlns:xlink="http://www.w3.org/1999/xlink" width="375pt" zoomAndPan="magnify" viewBox="0 0 375 374.999991" height="374.999991pt" preserveAspectRatio="xMidYMid meet" version="1.2"><defs><clipPath xml:id="clip1" id="clip1"><path d="M 41 38.046875 L 363.210938 38.046875 L 363.210938 360.265625 L 41 360.265625 Z M 41 38.046875 "/></clipPath></defs><g xml:id="surface1" id="surface1"><path style=" stroke:none;fill-rule:nonzero;fill:rgb(100%,8.628845%,8.628845%);fill-opacity:1;" d="M 323.855469 278.449219 C 323.855469 302.972656 303.992188 322.851562 279.488281 322.851562 C 254.984375 322.851562 235.121094 302.972656 235.121094 278.449219 C 235.121094 253.925781 254.984375 234.046875 279.488281 234.046875 C 303.992188 234.046875 323.855469 253.925781 323.855469 278.449219 "/><path style=" stroke:none;fill-rule:nonzero;fill:rgb(100%,100%,100%);fill-opacity:1;" d="M 308.335938 285.023438 L 250.640625 285.023438 L 250.640625 271.871094 L 308.335938 271.871094 L 308.335938 285.023438 "/><path style=" stroke:none;fill-rule:nonzero;fill:rgb(100%,8.628845%,8.628845%);fill-opacity:1;" d="M 28.300781 145.523438 C 28.269531 142.128906 28.332031 148.917969 28.300781 145.523438 "/><path style=" stroke:none;fill-rule:nonzero;fill:rgb(100%,8.628845%,8.628845%);fill-opacity:1;" d="M 62.242188 225.5625 C 59.820312 223.183594 64.660156 227.941406 62.242188 225.5625 "/><path style=" stroke:none;fill-rule:nonzero;fill:rgb(100%,8.628845%,8.628845%);fill-opacity:1;" d="M 60.855469 64.910156 C 63.234375 62.484375 58.476562 67.332031 60.855469 64.910156 "/><path style=" stroke:none;fill-rule:nonzero;fill:rgb(100%,8.628845%,8.628845%);fill-opacity:1;" d="M 221.382812 63.523438 C 223.804688 65.902344 218.960938 61.140625 221.382812 63.523438 "/><path style=" stroke:none;fill-rule:nonzero;fill:rgb(100%,8.628845%,8.628845%);fill-opacity:1;" d="M 140.828125 30.941406 C 144.222656 30.914062 137.4375 30.972656 140.828125 30.941406 "/><path style=" stroke:none;fill-rule:nonzero;fill:rgb(100%,8.628845%,8.628845%);fill-opacity:1;" d="M 159.914062 130.675781 L 137.519531 130.675781 L 137.519531 156.210938 L 123.617188 156.210938 L 123.617188 130.675781 L 101.109375 130.675781 L 101.109375 117.585938 L 123.617188 117.585938 L 123.617188 93.703125 L 137.519531 93.703125 L 137.519531 117.585938 L 159.914062 117.585938 Z M 210.976562 106.464844 C 208.4375 101.828125 205.476562 97.542969 202.175781 93.617188 C 202.167969 93.488281 202.15625 93.367188 202.152344 93.230469 C 202.140625 92.609375 202.125 91.863281 202.226562 91.113281 C 202.316406 90.355469 202.457031 89.542969 202.710938 88.75 C 202.953125 87.949219 203.277344 87.140625 203.714844 86.378906 C 204.160156 85.625 204.667969 84.871094 205.199219 84.09375 C 206.261719 82.539062 207.492188 80.976562 208.855469 79.542969 C 210.214844 78.105469 211.738281 76.832031 213.195312 75.664062 C 213.933594 75.089844 214.648438 74.539062 215.328125 74.015625 C 216.023438 73.507812 216.636719 72.984375 217.292969 72.589844 C 218.5 71.855469 219.808594 71.539062 220.921875 71.433594 C 223.035156 72.6875 224.84375 73.085938 225.625 72.289062 C 226.894531 70.996094 224.992188 67.074219 221.382812 63.523438 C 217.773438 59.972656 213.820312 58.136719 212.550781 59.425781 C 211.769531 60.222656 212.199219 62.027344 213.488281 64.121094 C 213.402344 65.234375 213.109375 66.550781 212.398438 67.773438 C 212.015625 68.433594 211.5 69.058594 211.003906 69.761719 C 210.492188 70.449219 209.953125 71.175781 209.394531 71.925781 C 208.253906 73.402344 207.003906 74.949219 205.59375 76.332031 C 204.1875 77.722656 202.644531 78.976562 201.109375 80.070312 C 200.34375 80.613281 199.597656 81.140625 198.851562 81.59375 C 198.097656 82.046875 197.296875 82.386719 196.496094 82.640625 C 195.710938 82.90625 194.902344 83.0625 194.144531 83.164062 C 193.402344 83.277344 192.65625 83.28125 192.035156 83.273438 C 191.886719 83.273438 191.761719 83.261719 191.625 83.257812 C 187.429688 79.847656 182.914062 76.878906 178.152344 74.410156 C 178.03125 74.007812 177.910156 73.554688 177.8125 73.015625 C 177.679688 72.195312 177.628906 71.25 177.726562 70.226562 C 177.804688 69.195312 178.117188 68.121094 178.496094 66.964844 C 179.222656 64.640625 180.074219 61.929688 180.980469 59.019531 C 181.929688 56.132812 182.9375 53.046875 184.132812 50.035156 C 185.308594 47.015625 186.636719 44.0625 187.996094 41.335938 C 188.679688 39.972656 189.367188 38.667969 190.027344 37.433594 C 190.71875 36.210938 191.292969 35.023438 192.003906 34.003906 C 193.320312 32.132812 195.089844 30.820312 196.699219 29.964844 C 200.730469 30.539062 203.75 29.996094 204.429688 28.285156 C 205.484375 25.648438 200.617188 21.207031 193.433594 18.128906 C 198.078125 20.183594 201.183594 23.078125 200.496094 24.804688 C 199.757812 26.648438 194.976562 26.472656 189.816406 24.40625 C 184.65625 22.339844 181.070312 19.171875 181.808594 17.328125 C 182.542969 15.480469 187.324219 15.664062 192.484375 17.726562 C 184.789062 14.648438 177.65625 14.378906 176.554688 17.128906 C 175.875 18.839844 177.679688 21.304688 180.980469 23.667969 C 181.566406 25.402344 181.957031 27.574219 181.617188 29.84375 C 181.433594 31.078125 181.023438 32.332031 180.6875 33.699219 C 180.316406 35.046875 179.914062 36.464844 179.46875 37.921875 C 178.582031 40.835938 177.503906 43.894531 176.277344 46.890625 C 175.0625 49.894531 173.667969 52.824219 172.367188 55.570312 C 171.023438 58.304688 169.769531 60.855469 168.695312 63.042969 C 168.167969 64.140625 167.660156 65.132812 167.003906 65.9375 C 166.371094 66.746094 165.679688 67.394531 165.019531 67.894531 C 164.589844 68.214844 164.179688 68.46875 163.824219 68.675781 C 158.847656 67.226562 153.722656 66.269531 148.523438 65.820312 C 148.421875 65.730469 148.332031 65.65625 148.226562 65.558594 C 147.777344 65.128906 147.242188 64.609375 146.785156 64.011719 C 146.308594 63.410156 145.835938 62.738281 145.453125 61.996094 C 145.058594 61.257812 144.71875 60.460938 144.492188 59.609375 C 144.269531 58.765625 144.097656 57.867188 143.925781 56.945312 C 143.578125 55.089844 143.339844 53.113281 143.296875 51.136719 C 143.242188 49.160156 143.417969 47.179688 143.621094 45.324219 C 143.742188 44.398438 143.855469 43.496094 143.964844 42.648438 C 144.097656 41.796875 144.160156 40.992188 144.34375 40.25 C 144.679688 38.878906 145.382812 37.722656 146.097656 36.867188 C 148.480469 36.253906 150.035156 35.253906 150.023438 34.140625 C 150.007812 32.328125 145.894531 30.898438 140.828125 30.941406 C 135.773438 30.988281 131.675781 32.488281 131.695312 34.296875 C 131.707031 35.414062 133.28125 36.386719 135.671875 36.957031 C 136.402344 37.800781 137.125 38.941406 137.484375 40.308594 C 137.675781 41.046875 137.757812 41.851562 137.902344 42.699219 C 138.027344 43.550781 138.15625 44.445312 138.292969 45.371094 C 138.53125 47.222656 138.742188 49.199219 138.71875 51.175781 C 138.707031 53.15625 138.503906 55.132812 138.1875 56.992188 C 138.03125 57.917969 137.875 58.816406 137.667969 59.667969 C 137.457031 60.523438 137.128906 61.328125 136.746094 62.070312 C 136.375 62.816406 135.914062 63.5 135.453125 64.109375 C 135.003906 64.714844 134.476562 65.246094 134.035156 65.679688 C 133.941406 65.773438 133.855469 65.847656 133.765625 65.933594 C 130.019531 66.316406 126.273438 66.984375 122.550781 67.925781 C 122.492188 67.902344 122.4375 67.882812 122.375 67.855469 C 121.851562 67.664062 121.210938 67.335938 120.371094 66.925781 C 118.753906 66.078125 116.726562 64.746094 114.765625 62.945312 C 113.8125 62.03125 112.820312 61.023438 111.941406 59.886719 C 111.039062 58.761719 110.253906 57.5 109.417969 56.207031 C 107.777344 53.609375 106.109375 50.800781 104.734375 47.863281 C 103.335938 44.941406 102.242188 41.886719 101.363281 38.960938 C 100.917969 37.5 100.519531 36.074219 100.167969 34.714844 C 99.828125 33.34375 99.421875 32.089844 99.226562 30.847656 C 98.875 28.554688 99.214844 26.367188 99.746094 24.621094 C 102.949219 22.191406 104.667969 19.703125 103.953125 18.023438 C 102.832031 15.417969 96.257812 15.71875 89.003906 18.621094 C 93.734375 16.792969 97.972656 16.636719 98.707031 18.351562 C 99.484375 20.175781 95.980469 23.429688 90.871094 25.621094 C 85.765625 27.8125 80.992188 28.109375 80.207031 26.285156 C 79.425781 24.460938 82.9375 21.203125 88.042969 19.011719 C 80.425781 22.28125 75.191406 27.140625 76.359375 29.863281 C 77.078125 31.542969 80.074219 32.015625 84.050781 31.363281 C 85.671875 32.179688 87.484375 33.453125 88.894531 35.28125 C 89.660156 36.273438 90.285156 37.433594 91.046875 38.625 C 91.789062 39.820312 92.546875 41.089844 93.296875 42.421875 C 94.804688 45.082031 96.257812 47.976562 97.410156 51.003906 C 98.585938 54.027344 99.46875 57.171875 100.21875 60.15625 C 100.578125 61.652344 100.953125 63.085938 101.144531 64.523438 C 101.363281 65.941406 101.40625 67.351562 101.410156 68.671875 C 101.363281 71.335938 100.925781 73.726562 100.425781 75.484375 C 100.140625 76.375 99.9375 77.070312 99.714844 77.574219 C 99.691406 77.640625 99.667969 77.695312 99.648438 77.753906 C 96.566406 79.695312 93.65625 81.828125 90.925781 84.128906 C 90.796875 84.136719 90.679688 84.152344 90.539062 84.15625 C 89.921875 84.167969 89.175781 84.179688 88.429688 84.082031 C 87.667969 83.992188 86.855469 83.847656 86.066406 83.597656 C 85.265625 83.355469 84.457031 83.027344 83.699219 82.589844 C 82.941406 82.148438 82.1875 81.636719 81.410156 81.105469 C 79.859375 80.042969 78.296875 78.808594 76.863281 77.445312 C 75.429688 76.085938 74.15625 74.5625 72.988281 73.105469 C 72.417969 72.363281 71.863281 71.648438 71.339844 70.96875 C 70.832031 70.273438 70.308594 69.65625 69.917969 69.003906 C 69.183594 67.792969 68.867188 66.484375 68.765625 65.371094 C 70.015625 63.253906 70.410156 61.445312 69.613281 60.664062 C 68.324219 59.394531 64.402344 61.296875 60.855469 64.910156 C 57.308594 68.523438 55.472656 72.480469 56.765625 73.75 C 57.558594 74.53125 59.363281 74.101562 61.457031 72.8125 C 62.570312 72.894531 63.886719 73.191406 65.105469 73.902344 C 65.765625 74.285156 66.386719 74.796875 67.089844 75.296875 C 67.78125 75.808594 68.503906 76.347656 69.253906 76.910156 C 70.730469 78.050781 72.273438 79.300781 73.660156 80.710938 C 75.046875 82.121094 76.300781 83.664062 77.390625 85.199219 C 77.9375 85.964844 78.460938 86.710938 78.914062 87.460938 C 79.367188 88.214844 79.707031 89.015625 79.960938 89.8125 C 80.226562 90.601562 80.382812 91.410156 80.484375 92.167969 C 80.597656 92.914062 80.597656 93.660156 80.59375 94.28125 C 80.589844 94.429688 80.582031 94.550781 80.578125 94.691406 C 77.945312 97.933594 75.570312 101.359375 73.496094 104.953125 C 72.980469 105.21875 72.246094 105.601562 71.382812 105.90625 C 70.460938 106.300781 69.425781 106.578125 68.269531 106.808594 C 67.125 107.019531 65.871094 107.15625 64.585938 107.097656 C 63.292969 107.066406 61.980469 106.808594 60.625 106.457031 C 59.261719 106.121094 57.804688 105.8125 56.332031 105.40625 C 53.378906 104.628906 50.273438 103.671875 47.265625 102.476562 C 44.25 101.304688 41.335938 99.875 38.636719 98.449219 C 37.285156 97.734375 35.996094 97.015625 34.773438 96.320312 C 33.5625 95.609375 32.382812 95.023438 31.363281 94.296875 C 29.5 92.957031 28.183594 91.179688 27.328125 89.574219 C 27.894531 85.558594 27.351562 82.554688 25.652344 81.871094 C 23.015625 80.820312 18.582031 85.6875 15.503906 92.863281 C 17.554688 88.226562 20.441406 85.125 22.171875 85.816406 C 24.011719 86.554688 23.828125 91.335938 21.769531 96.492188 L 21.769531 96.507812 C 19.703125 101.667969 16.542969 105.25 14.695312 104.515625 C 12.855469 103.78125 13.035156 98.996094 15.097656 93.832031 C 12.019531 101.535156 11.75 108.671875 14.5 109.769531 C 16.203125 110.449219 18.65625 108.660156 21.011719 105.371094 C 22.742188 104.792969 24.914062 104.402344 27.199219 104.714844 C 28.4375 104.890625 29.695312 105.285156 31.0625 105.609375 C 32.429688 105.941406 33.859375 106.316406 35.328125 106.730469 C 38.265625 107.558594 41.359375 108.53125 44.351562 109.765625 C 47.355469 110.976562 50.261719 112.425781 52.9375 113.902344 C 54.285156 114.621094 55.550781 115.402344 56.769531 116.097656 C 57.996094 116.78125 59.121094 117.503906 60.082031 118.371094 C 61.050781 119.214844 61.867188 120.179688 62.550781 121.125 C 63.226562 122.082031 63.785156 123.003906 64.183594 123.921875 C 64.59375 124.742188 64.863281 125.523438 65.054688 126.074219 C 64.128906 129.925781 63.496094 133.855469 63.152344 137.828125 C 63.066406 137.929688 62.988281 138.019531 62.890625 138.125 C 62.464844 138.574219 61.941406 139.109375 61.34375 139.566406 C 60.746094 140.042969 60.070312 140.515625 59.332031 140.894531 C 58.59375 141.292969 57.796875 141.632812 56.949219 141.863281 C 56.101562 142.082031 55.203125 142.253906 54.28125 142.425781 C 52.429688 142.777344 50.457031 143.011719 48.480469 143.058594 C 46.503906 143.113281 44.527344 142.9375 42.671875 142.730469 C 41.746094 142.609375 40.847656 142.496094 40 142.390625 C 39.144531 142.257812 38.34375 142.191406 37.601562 142.007812 C 36.230469 141.671875 35.078125 140.96875 34.222656 140.257812 C 33.609375 137.871094 32.609375 136.308594 31.492188 136.320312 C 29.6875 136.335938 28.257812 140.457031 28.300781 145.523438 C 28.34375 150.589844 29.84375 154.683594 31.65625 154.667969 C 32.769531 154.65625 33.738281 153.082031 34.308594 150.6875 C 35.15625 149.957031 36.292969 149.234375 37.660156 148.875 C 38.398438 148.679688 39.203125 148.601562 40.050781 148.453125 C 40.898438 148.332031 41.792969 148.199219 42.71875 148.066406 C 44.566406 147.828125 46.542969 147.617188 48.519531 147.636719 C 50.496094 147.648438 52.472656 147.855469 54.332031 148.167969 C 55.257812 148.328125 56.15625 148.484375 57.003906 148.6875 C 57.855469 148.902344 58.660156 149.230469 59.410156 149.613281 C 60.152344 149.980469 60.835938 150.441406 61.441406 150.910156 C 62.046875 151.355469 62.578125 151.882812 63.015625 152.324219 C 63.105469 152.421875 63.179688 152.503906 63.265625 152.597656 C 63.808594 157.894531 64.902344 163.191406 66.566406 168.425781 C 66.375 168.789062 66.128906 169.203125 65.816406 169.644531 C 65.335938 170.320312 64.703125 171.027344 63.910156 171.679688 C 63.128906 172.355469 62.144531 172.890625 61.058594 173.441406 C 58.902344 174.570312 56.386719 175.886719 53.691406 177.296875 C 50.976562 178.667969 48.082031 180.136719 45.113281 181.421875 C 42.148438 182.726562 39.121094 183.875 36.234375 184.835938 C 34.789062 185.316406 33.382812 185.753906 32.042969 186.160156 C 30.6875 186.53125 29.445312 186.96875 28.21875 187.1875 C 25.957031 187.578125 23.777344 187.246094 22.035156 186.703125 C 19.59375 183.457031 17.082031 181.710938 15.394531 182.433594 C 12.789062 183.554688 13.085938 190.136719 15.988281 197.394531 C 14.160156 192.65625 14.007812 188.417969 15.71875 187.683594 C 17.542969 186.898438 20.796875 190.410156 22.984375 195.523438 C 25.171875 200.632812 25.472656 205.410156 23.644531 206.195312 C 21.820312 206.976562 18.570312 203.460938 16.382812 198.355469 C 19.648438 205.980469 24.5 211.214844 27.21875 210.050781 C 28.910156 209.324219 29.378906 206.292969 28.707031 202.269531 C 29.519531 200.640625 30.792969 198.839844 32.625 197.476562 C 33.628906 196.734375 34.800781 196.136719 36.003906 195.410156 C 37.222656 194.71875 38.507812 194.003906 39.851562 193.285156 C 42.539062 191.855469 45.464844 190.453125 48.449219 189.207031 C 51.425781 187.941406 54.480469 186.855469 57.347656 185.832031 C 60.226562 184.851562 62.917969 183.933594 65.21875 183.152344 C 66.367188 182.742188 67.429688 182.402344 68.460938 182.296875 C 69.480469 182.171875 70.425781 182.207031 71.246094 182.320312 C 71.792969 182.402344 72.246094 182.511719 72.652344 182.625 C 75.191406 187.257812 78.148438 191.546875 81.449219 195.46875 C 81.457031 195.597656 81.46875 195.714844 81.472656 195.855469 C 81.488281 196.472656 81.5 197.222656 81.398438 197.96875 C 81.308594 198.726562 81.167969 199.542969 80.914062 200.332031 C 80.675781 201.136719 80.347656 201.941406 79.910156 202.703125 C 79.464844 203.460938 78.957031 204.214844 78.425781 204.992188 C 77.363281 206.542969 76.132812 208.109375 74.769531 209.542969 C 73.410156 210.976562 71.886719 212.253906 70.429688 213.417969 C 69.691406 213.992188 68.976562 214.546875 68.292969 215.070312 C 67.601562 215.578125 66.984375 216.101562 66.332031 216.496094 C 65.125 217.230469 63.8125 217.546875 62.703125 217.648438 C 60.589844 216.394531 58.777344 216 57.996094 216.796875 C 56.730469 218.085938 58.632812 222.011719 62.242188 225.5625 C 65.851562 229.113281 69.804688 230.949219 71.070312 229.65625 C 71.855469 228.859375 71.425781 227.058594 70.136719 224.957031 C 70.21875 223.847656 70.515625 222.53125 71.226562 221.308594 C 71.609375 220.652344 72.121094 220.023438 72.617188 219.324219 C 73.128906 218.636719 73.671875 217.910156 74.230469 217.160156 C 75.371094 215.683594 76.621094 214.136719 78.03125 212.753906 C 79.4375 211.363281 80.980469 210.105469 82.515625 209.015625 C 83.28125 208.46875 84.027344 207.945312 84.773438 207.488281 C 85.527344 207.039062 86.328125 206.699219 87.128906 206.445312 C 87.914062 206.179688 88.722656 206.019531 89.476562 205.917969 C 90.222656 205.804688 90.96875 205.804688 91.589844 205.808594 C 91.738281 205.808594 91.863281 205.820312 92 205.824219 C 95.234375 208.457031 98.648438 210.828125 102.230469 212.902344 C 102.546875 213.433594 102.964844 214.1875 103.335938 215.082031 C 103.339844 215.089844 103.34375 215.09375 103.34375 215.097656 L 211.710938 106.640625 C 211.445312 106.585938 211.203125 106.527344 210.976562 106.464844 "/><path style=" stroke:none;fill-rule:nonzero;fill:rgb(100%,8.628845%,8.628845%);fill-opacity:1;" d="M 188.074219 243.15625 L 187.179688 242.257812 C 185.457031 240.535156 183.796875 239.585938 182.195312 239.410156 C 180.59375 239.238281 179.105469 239.835938 177.734375 241.210938 L 176.011719 242.933594 L 187.316406 254.25 L 189.003906 252.5625 C 190.371094 251.195312 190.96875 249.707031 190.796875 248.089844 C 190.625 246.476562 189.71875 244.832031 188.074219 243.15625 "/><path style=" stroke:none;fill-rule:nonzero;fill:rgb(100%,8.628845%,8.628845%);fill-opacity:1;" d="M 153.332031 285.851562 C 153.039062 284.304688 152.015625 282.648438 150.265625 280.875 L 149.441406 280.050781 C 147.664062 278.273438 145.996094 277.242188 144.4375 276.953125 C 142.878906 276.667969 141.507812 277.113281 140.328125 278.292969 C 139.160156 279.464844 138.710938 280.824219 138.984375 282.371094 C 139.261719 283.921875 140.277344 285.582031 142.027344 287.347656 L 142.855469 288.179688 C 144.585938 289.90625 146.246094 290.933594 147.835938 291.25 C 149.421875 291.566406 150.816406 291.128906 152.011719 289.933594 C 153.179688 288.761719 153.621094 287.402344 153.332031 285.851562 "/><g clip-rule="nonzero" clip-path="url(#clip1)"><path style=" stroke:none;fill-rule:nonzero;fill:rgb(100%,8.628845%,8.628845%);fill-opacity:1;" d="M 150.101562 295.546875 C 148.324219 295.972656 146.507812 295.863281 144.648438 295.214844 C 142.792969 294.566406 141.046875 293.429688 139.410156 291.808594 L 138.574219 290.972656 C 136.90625 289.300781 135.738281 287.53125 135.070312 285.660156 C 134.402344 283.792969 134.28125 281.96875 134.699219 280.191406 C 135.117188 278.414062 136.035156 276.816406 137.445312 275.40625 C 138.855469 273.992188 140.449219 273.078125 142.226562 272.65625 C 144.003906 272.238281 145.824219 272.363281 147.695312 273.027344 C 149.5625 273.699219 151.328125 274.863281 152.988281 276.523438 L 153.742188 277.277344 C 155.410156 278.949219 156.578125 280.707031 157.246094 282.554688 C 157.914062 284.402344 158.035156 286.214844 157.625 287.996094 C 157.207031 289.777344 156.292969 291.378906 154.871094 292.800781 C 153.46875 294.203125 151.878906 295.121094 150.101562 295.546875 Z M 131.722656 311.578125 C 129.015625 311.359375 126.386719 309.976562 123.835938 307.421875 L 122.796875 306.386719 C 121.167969 304.753906 120.019531 303.03125 119.355469 301.214844 C 118.6875 299.398438 118.554688 297.628906 118.957031 295.898438 C 119.363281 294.164062 120.269531 292.59375 121.679688 291.179688 C 123.632812 289.222656 125.734375 288.171875 127.976562 288.023438 C 130.214844 287.878906 132.378906 288.660156 134.457031 290.367188 L 130.964844 293.859375 C 129.785156 292.851562 128.6875 292.363281 127.671875 292.390625 C 126.65625 292.421875 125.613281 292.976562 124.542969 294.042969 C 123.378906 295.207031 122.925781 296.5 123.179688 297.910156 C 123.4375 299.324219 124.4375 300.914062 126.171875 302.683594 L 127.453125 303.964844 C 129.28125 305.796875 130.894531 306.859375 132.296875 307.148438 C 133.695312 307.4375 134.996094 306.988281 136.1875 305.792969 C 137.265625 304.714844 137.824219 303.664062 137.863281 302.636719 C 137.902344 301.613281 137.445312 300.542969 136.488281 299.433594 L 139.980469 295.941406 C 141.671875 297.898438 142.433594 300.007812 142.265625 302.269531 C 142.101562 304.53125 141.023438 306.660156 139.039062 308.644531 C 136.867188 310.816406 134.429688 311.796875 131.722656 311.578125 Z M 228.296875 128.347656 L 271.8125 84.792969 L 317.03125 130.046875 C 311.613281 135.46875 306.191406 140.894531 300.773438 146.320312 C 291.492188 145.847656 280.710938 144.636719 268.898438 142.050781 C 252.585938 138.476562 238.941406 133.292969 228.296875 128.347656 Z M 73.246094 304.804688 C 71.496094 306.554688 68.660156 306.554688 66.910156 304.804688 C 65.160156 303.050781 65.160156 300.210938 66.910156 298.460938 L 216.917969 148.339844 C 218.664062 146.585938 221.503906 146.585938 223.253906 148.339844 C 225 150.089844 225 152.925781 223.253906 154.679688 Z M 202.835938 218.390625 L 200.066406 223.652344 L 197.335938 220.914062 L 201.839844 211.378906 L 202.195312 211.019531 L 219.160156 227.992188 L 215.796875 231.359375 Z M 193.273438 236.667969 L 199.824219 230.113281 L 202.535156 232.828125 L 195.984375 239.382812 Z M 169.695312 243.597656 L 174.90625 238.378906 C 176.394531 236.890625 178.0625 235.894531 179.90625 235.386719 C 181.753906 234.882812 183.625 234.921875 185.519531 235.5 C 187.417969 236.078125 189.152344 237.152344 190.726562 238.730469 L 191.503906 239.507812 C 193.082031 241.085938 194.160156 242.8125 194.734375 244.6875 C 195.3125 246.558594 195.347656 248.421875 194.847656 250.277344 C 194.339844 252.132812 193.351562 253.808594 191.878906 255.296875 L 186.632812 260.550781 Z M 162.96875 250.328125 L 166.457031 246.832031 L 183.398438 263.785156 L 179.90625 267.277344 Z M 157.269531 256.03125 L 161.152344 252.140625 L 172.195312 274.996094 L 168.554688 278.644531 L 145.738281 267.570312 L 149.613281 263.691406 L 166.167969 272.625 Z M 227.199219 220.277344 L 224.394531 217.46875 L 225.128906 216.714844 C 227.921875 213.65625 228.128906 210.695312 225.757812 207.84375 C 225.742188 209.578125 225.148438 211.035156 223.976562 212.207031 C 222.476562 213.707031 220.769531 214.390625 218.839844 214.261719 C 216.910156 214.136719 215.078125 213.199219 213.332031 211.449219 C 212.222656 210.339844 211.445312 209.078125 211.003906 207.667969 C 210.5625 206.253906 210.519531 204.855469 210.871094 203.46875 C 211.222656 202.085938 211.945312 200.847656 213.027344 199.761719 C 214.144531 198.644531 215.417969 197.929688 216.84375 197.621094 C 218.273438 197.308594 219.75 197.4375 221.277344 198.003906 C 222.804688 198.570312 224.25 199.523438 225.605469 200.867188 L 226.851562 202.113281 C 229.671875 204.9375 231.1875 207.863281 231.398438 210.878906 C 231.605469 213.898438 230.480469 216.75 228.011719 219.4375 Z M 357.476562 95.1875 L 306.644531 44.316406 C 299 36.667969 286.605469 36.667969 278.960938 44.316406 L 258.269531 65.027344 C 256.558594 66.742188 256.558594 69.523438 258.269531 71.238281 L 262.945312 75.914062 L 54.179688 284.847656 C 36.792969 302.242188 36.792969 330.453125 54.179688 347.851562 C 71.5625 365.253906 99.75 365.253906 117.136719 347.851562 L 325.902344 138.921875 L 330.574219 143.601562 C 332.292969 145.316406 335.070312 145.316406 336.785156 143.601562 L 357.476562 122.890625 C 365.121094 115.242188 365.121094 102.835938 357.476562 95.1875 "/></g><path style=" stroke:none;fill-rule:nonzero;fill:rgb(100%,8.628845%,8.628845%);fill-opacity:1;" d="M 223.089844 205.082031 L 221.707031 203.695312 C 220.566406 202.554688 219.46875 201.886719 218.402344 201.695312 C 217.339844 201.5 216.445312 201.769531 215.714844 202.5 C 215.042969 203.171875 214.796875 204.035156 214.976562 205.089844 C 215.160156 206.140625 215.714844 207.132812 216.648438 208.0625 C 217.570312 208.988281 218.539062 209.53125 219.554688 209.703125 C 220.570312 209.875 221.464844 209.578125 222.230469 208.808594 C 222.773438 208.265625 223.101562 207.65625 223.214844 206.988281 C 223.324219 206.3125 223.285156 205.679688 223.089844 205.082031 "/></g></svg>